# xmcd
#
# Track frame offsets:
#	150
#	25219
#	47718
#	70590
#
# Disc length: 1164 seconds
#
# Revision: 0
# Processed by: cddbd v1.5.1PL0 Copyright (c) Steve Scherf et al.
# Submitted via: dBpowerAMP V4.0
#
DISCID=2b048a04
DTITLE=Sateentekijä - Sateentekijä
DYEAR=2002
DGENRE=Folk-Rock
TTITLE0=Sinusta Laulun Teen
TTITLE1=Muistatko
TTITLE2=Näkymätön Mies
TTITLE3=Talo
EXTD=
EXTT0=
EXTT1=
EXTT2=
EXTT3=
PLAYORDER=
